<mxfile host="65bd71144e" pages="1">
    <diagram id="UnQeQf4PPMaO_wAqGCnH" name="Page-1">
        <mxGraphModel dx="734" dy="419" grid="1" gridSize="10" guides="1" tooltips="1" connect="1" arrows="1" fold="1" page="1" pageScale="1" pageWidth="827" pageHeight="1169" math="0" shadow="0">
            <root>
                <mxCell id="0"/>
                <mxCell id="1" parent="0"/>
                <mxCell id="10" style="edgeStyle=none;html=1;entryX=0;entryY=0.5;entryDx=0;entryDy=0;shape=flexArrow;fillColor=#FFFFFF;gradientColor=none;" parent="1" source="2" edge="1">
                    <mxGeometry relative="1" as="geometry">
                        <mxPoint x="220" y="709.925" as="targetPoint"/>
                    </mxGeometry>
                </mxCell>
                <mxCell id="2" value="" style="shape=actor;whiteSpace=wrap;html=1;" parent="1" vertex="1">
                    <mxGeometry x="110" y="681" width="40" height="60" as="geometry"/>
                </mxCell>
                <mxCell id="18" style="edgeStyle=none;html=1;exitX=1;exitY=0.5;exitDx=0;exitDy=0;shape=flexArrow;fillColor=#FFFFFF;" parent="1" source="13" target="17" edge="1">
                    <mxGeometry relative="1" as="geometry"/>
                </mxCell>
                <mxCell id="13" value="" style="shape=image;verticalLabelPosition=bottom;labelBackgroundColor=default;verticalAlign=top;aspect=fixed;imageAspect=0;image=data:image/png,iVBORw0KGgoAAAANSUhEUgAAASYAAACsCAMAAADhRvHiAAABFFBMVEX///8mJzD/S0u9QEN9NTsgISsAAAUAABZQUFYAAAAiIy0AAAwWFyMPER4AABS9vb+urrDW1tf29vbi4uNhYWaNjZG3t7mKi46AgIQ2Nz5CQkkbHCcAABD/PDwAAAq9P0KoqKoTFCGYmJv/Pz//NTXp6epJSlDa2ttxEx7/0tLPz9C5Ky//29v/Rkb/7e3m5udqa2//h4f/lZW4JSn/XFx1IirXx8h4KTDhs7T/dXW6nZ+gOz/1SUr/6emJNzxbXGEvMDnWlpjLc3TmwMDGYmTHr7H/oqL/traEQ0iZaWz/ubmLUFT/xcXdqKnHZmidb3L/Z2engILDqqzCUlTcPkDUREbUwsPpR0iykZOEJSzPIST/mZmy8A8tAAALaklEQVR4nO2caWPbNhKGSdkUJZ4SdYs0Td0OfSmJHSdpsnJ30yRN023a7Wa72///PxYDUiTAQ5ZTHZY8z4dWEngMXs4AgwEdQUAQBEEQBEEQBEEQBEEQBEEQBEEQBEEQBEEQBEGW5Ofvt23BLvDy+enft23Dw+fi9Pjg9B/btuLB8+744OD41Nq2GQ+cl6cHhGMMu4VAyAEYdgt5F6j0mMPOunp6ccchP58ehBz/867LvT58sSLDHhZnw/Phs4VOcvH8IOKOsPvh5vr69UrNezBcnRcGw/cLDpiH3J1h9/Xw+vDwZE/j8sOgUCgMBh/y2uOQWxx2Lz4SkQ5vflyPldtnWAAG558yW9mQo2H3MvOwFz+BSIeH1/s5NBGenlOdCkeFzxmt/zrmZcoMu9qPJ4cBN2s3d1ucHRVCjq6eJBv5kMsOu9EvJzdzlfZ0AAfezGUqnA+/nHFNyZDLCDvr10gkMoCPNmn4ZqGDeCTUq7dMUzLkgrBjEi3rD0akw8OfNm785rCGhQIrVJxvpkOO6vQuOvX1NSvS4fXXrXRgQ8wH8UioMN98mxFybNj9xotEZNpiJ9bPk6NCISEUzTezQo6603PwN5Jy8yId3vyx5Y6smUKKwdH7nJALw+7rx6RIZACvbbsj6+X9IEOowu95KhGdvkuLtN8DOHAxTMsE/Dtfp7+lVbr+Ydv9WDevzrN1yhXq+CAt08m2e7F2PicH8Yg3OUIdf5dU6ebXbfdi/eR5U75QqbA7mWy7E+vnz4xBPBYqKzFIhd3HbfdhA7zNGcRD/pO1aOHD7ua3bfdhE3xZEHY5QvFht69lS578QTwSamHY3fyy7R5shjtlKqTyTTbs9rdsyfPsjqijJCY9Nuy2bf+GuGMQzxQqDrt9LlvyXC3jTok0Kgq7fS5b8nxalDrlCRWG3f7uO6VZLuqoUMeJsNvvsiXP0+WijhKlUUHY7XfZkudseXdihIKw2/eyJc/VfWSa55sQdieX2zZ9k3xYdhCf83sYdvtetuSx7hV1FJj0jv+792VLnvsM4oxQp9u2e8NcDO4bdsD/Ht0rmdaz8+Hw6GgwOCcskgbaB4Ojo6PhUeK1g8fCxdmTT+//fPrqy5vBcAii8dDfClevnj57/+Hz2dtHUWW6k4uLt2eEJwHk09uLC1QGQRAEQRAEQRAEQRAEQRAEmWNO697abzKqtLt6ueiKs4a/9putCq9SqTTDz23Xto3Zeu/nl4q6rYgERdJkvbEj1fyyrsvj4GOtDNY75hrvNho7ksiiud4ab7c6iqIolYKPpg6G9/rru5lZDESytV6vF/iUKHPua3mEZt7524ORKelNPpi8yjcUTXoD27Cnfc/rtzuqRh2qxBxigXevOe6/BUYmGJskIza6pep6ubq6W11SldR6dMnLlgrepbfjYyyV2FNf3T1XBSuT0KzPvLipQR62scI/EhpLqaFv1LHJb8yz2AmZeFYsk+8QRdykd3bICCXFUYYyte2s+WHigjtFaQHKBOO1k06T6iQU9SgSH71MFnEbpZv+3Surajl2soUyVU3T5P8k3qr5/mRBimpNSPvC2XpU9Wv8BUYTv5o8ZYFMfZBpZX+oP3JyBLAA+DDuEGgyBR86okebJxL5CN42mboGmXob8Zm1Rsc1ZNlwxXbmhNyc9lRoV+U6n4o1yR0UOKXW1lW4QCly50lbUw3DcKUWpxQrk0nOFiv0k0LsvI0s7mj3ESSbkZrtTTEdSVGClFMB9MDFqo6iGKSX7bJNs6zI8Ub1shYcLiq2Ok65fd/R7Xmyb+s9VqiKoSgOkalVDo+QjDF9UtZ0/ouolT3mDE4mmRhXmX+amwCUv0kZniIkTYuWcB2FW8eEw31VJmNXU6jrofVzmZpFmz1aKvOzw6Woc1cT1Wnc2CRtclWYGnGzrRDTRorGnOG0OONjmcjZoUyJexT/okRAiYzVdnvBASJ4e/BsgTIjk+mR/yo9ncRHGHT9YuAljuuGXuOw154UqeYaCThdNXrwxYjbqUw1zxAlcr4q09NtooIo0V9IcNOzi3GOlyNTmdhJz9YDk1cgkwfSO17+AbXJpFY1II26nACjSCbN00RFHfdN368Eplcgj5CKU/PSEkbmlK4VmWtbskKXRS0f3LfW16G9HNVtQCa9qotGtzkSLL9NNTXMVk90Zib5pVa57UEgSXfIZBEra5Do6GaNmrwCmQS61jWmC0sn6YQAZBI1UeuwozRdfmrdaH657EK0lKO/sJjZ/K0sWAFI4/lXkEm0xag6cSlSVW1mjdDWqXLzr9kyUVa9WPHDlW9jwd+L5Mgkavwc2ZWSP5VsJps3y6TbBjMnChaEUXF+YyqT6MSj+qUajF9MnXAGY0Q0nm1QJqFSDkZhtdvPq1vmyKR0uKNMg/WNAPDVYuheo37HMaZcc7/H9C3wJnYsa4E32uwpNVhb2fNvm5RJMJ1gdlI02al7WSlZjkwGLyuEkJrIAEE6LZ6bJm0+uCcGIwyVqcgeENyFy75uFeaYjcrE5iVkSlFaqawwL+i4g2pk/NZScybplSImf8y+MMgkzZLNosydMSWWOvNnsVmZSBenapz1aU4nUanMlimRR3gkgJyUL0LcJF2Mge0oyKRxeRZdSvGRDTNYdJdNy0Qsak4dOcqf5S53h2yZtAZ3BVgtK6nr0lk+t5BfMxIy6dwDylhxblkmwCerMV0K02ePNXcZmezEaBseSIToeamfKTWP3mrXZBJgu67uBsmuy7j/MjJZxGal1G/w9KFbCT2FkV9pTEtK0dB3VSawzQsWXnF6vJRMUGsgk2USOzHJX3ozsk7RNTva8tpRmQh9lw7lsblLyDRhVqwJYpn8cbEXbwlKmr7TMgk+6BTfdGmZ0t4EyHOZpuGOoGJruuy4pf5oF4dwBkiP4xxmGZlg0lJKjVYWofVB2cU2nO60UfHpGiWZEOyYTILDJnZLDeHqHRUZwaP+5rbZ3H3XZeqS6c6dLwqWSgjU/MJ0AB2IOnyquesywVI8WhQsJdNYSS4seCCDEvVEwcbdCZn8sqqqmdW923t7U+sOwyqptUh44YcvE9iReTXYSogzgqVk8mWuGJACZgU5UaqBvu2ATNRpsgbeNrf0oDJxa/cMmQTI3lO7D/3+3FZYGidKL0LdXqdM8sreSIFHnH6FIMib4mIqdTpuWZslE1zLTuz5jco9Qw/KuqBCz+Naq+5a00t9Za9kWXQrRE94J33/ginNCzD6ckWSLJksOEvnw64bV7trsCV4y51gr2+xAlshGSvxb6WvJ9e5wqhN1youU/6YcbV9IVsmoQI6sbsP1hiEKIaRBgGuMZb7miKtTaYq2LLCVzFLdK+wZ7RN2LS3JpV6UMpkXwOjtVpRshuVSovZgErKJExpNdtpBM45aTnc+2RNuIjWMQMZ/bpLxjtpXTIJdFvGqXtNz7uvJJl0e8H6VDdckh0YYcFJ5h22S3/VdL0cPKBsmYQZ9U3NcMTOrWEEDyB2QvpEFN3pzGYdBzYcVYjTNclk0uFE6ul6fo35Xkxdfv9bTG9qC6NeWAMOp/wcmYRgDxLUCP/vsHJ3gieiSBK0KmV/fVk4vH0ZdsZd0evbfsdhd/4VrThL1bStsUEdKixNV1VJ0jNkEnxRjq8lyTY/2cR7E8SrRBKbZUmy5x2tyJJk8DJBc0KmniS5c+vYs02DnM3KJHjhSx/GykYov22TcOtpWk+X3U4j870gc+Y6huMGLjzplkrj7Jewzalj6IDhzlIzcnXqyjrcRr314HuHXGbubya5ZpfrkgXNfIrRGJOD5hugqbP5+1kNxTUMtcyJ9xcZ+ZV+v+81/QUuejmpLeXAE7PiVcycHBju45kb+jcJrVrt0fzztQiCIAiCIAiCIAiCIAiCIAiCIAiCIAiCIAiC7CH/B0rFIzUyf9T4AAAAAElFTkSuQmCC;" parent="1" vertex="1">
                    <mxGeometry x="220" y="665" width="157.26" height="92" as="geometry"/>
                </mxCell>
                <mxCell id="29" style="edgeStyle=none;html=1;exitX=1;exitY=0.5;exitDx=0;exitDy=0;shape=flexArrow;fillColor=#FFFFFF;" parent="1" source="17" edge="1">
                    <mxGeometry relative="1" as="geometry">
                        <mxPoint x="650" y="711" as="targetPoint"/>
                    </mxGeometry>
                </mxCell>
                <mxCell id="17" value="" style="shape=image;verticalLabelPosition=bottom;labelBackgroundColor=default;verticalAlign=top;aspect=fixed;imageAspect=0;image=data:image/png,iVBORw0KGgoAAAANSUhEUgAAAUQAAACcCAMAAAAwLiICAAAAaVBMVEUAloj///8Aj4AAjX0AkoMAjH2p0csAkoQAj3/a6ui42NTW6OYAl4lbraOZyMKu1M+gzcdwt67Q5uPh7+4yoJTx+Pf4/Pvs9fSCv7d6u7Ocy8XA3tofm46OxL1BpZlotKpOqp8Ag3LH4d6wjw89AAAI+0lEQVR4nO2ba5OiOhCGIQQBFUUB8a7j//+RB9LNJUknznGHndqqfj5s1UIkzUun0+lkgoBhGIZhGIZhGIZhGIZhGIZhGIZhGIZhGIZhGIZhGIZhGIZhGIZhGIZhGIZhGIZhGIZhGOZPkFKINE6FkPK3TflHken1tN039aFu9tvTNWYd/zciuZXhlOa8Fr9t1GfIpOUXXEDKRWhzqfwyRjTprKaKrgvarkSIOKiej91u98jvVxELU0qpDJzHsPhISNixTRLPzxw/OnyuYhuUo+DuayEuqgvK0WTx0gdTvd9U6fQFZK6uVx/b50bKvUOO1tqnxxldv4k/tiTf7g9h6fP/K/RxI1RMKWOyfGLNfCLK6mB0XEz/c3N7/4+LCG6WeUQUW3QywipSxDDcB4Pgs4ko71a3ujVbp4oOEcPPRVy+E1H2fTzsOOMQMTxUfdu5RJSV1WkR6f93qqju1mXTNGWWZSsk2388q78VUW56ozL7S4GIzXK7KIrF9pKNb3Dtfz6XJ5pjOQylNC7cHG8FksfC5GNb3ooYj9ba0w+IuIillEk7Q6XxE8d+2OBUlzxmETGefC/kLBPz0pOeo8HoH8zI3okod8r3m+7fi9UKRNxO7BHBCt0ALs4jotiEFiIwPZHOKOYQ8c3EEqkUZnNTHVt3bRFbJ3nBC4ArziPi1dbwltgihlsy9XsjYjusUpF2K3HydiLbe/o6HUV05pl3VA9HjHGXEjEQEABgHppFRPGy5Dq0bmAN5zE0a/hETITMb9vXqsz2y1sVm/EgSavj9pWV5X65yWXveihiF9UQ3Vx1+yLAbCunjykRZTG5OouI9sysogch4pIaYh4Rk522eGiO+mSa5trtFc4SoNIULTFYq0v3fpI9GT2TIgZPdRVCxBwiQhzX6ByRGM7tlE383iOiNINtc504Y2x27BRxqr08d1fKVteoVsIYqRctIljZzCYikZ0eOxMoEY/EBO0RMdlZTxhNj6wogiPTLyLkN50hyXkq/XCfFBGGVa16mEFEfOSUGowmRKQyaI+IMAcc2iR8GLd1/4SkL3eU+9dKpSsrvOUVEfKbUDWFgW3EGFpEaFrO5Ylya5rchxlCxJCYMn0iBmWRB1GXeke5nqz1GXMh1eSc3m9ZgW4OIja3zcDk4bF6zFapIaBkoncNIi6NiSWf+MAMIgq9cNSZj1GGEpEoUIGIQmoMTx/qojKGYiUWDfC1xqlGij5UeGfnamIGqqHXckgRMe4Xc6U4xhK5ZYcGtC4SR9GXVqg158IARbw8c40n0ROui8B4mB/IUo8v2Yb6TYmfGby50R5CiSgxE87nSnGsTFu3CaNJj5XbOqo4DTHu0fidcgeIIqRSXhHBf9FpMf3Lp0aBU2iBUq7VPN5/shlEtGpgenlJ6CHTSh0cIpIlVVAARh+8/4EqDXlElDAbDUaAB2gLaFPEREYnNOo429o5N1/f54hmrOn4voipmoRhmsBZ9kyMZ4+IsGweRcOpRWsCdkZpN52l8fqx6Gs+fUb5F0TMfY74bREbXQLYeBNqZj1DB5iGLiLriR4RYdiMwxc/xXRqAREPZZmtsrKZmFT3jeYfzsYCwHBEKpVR11cbnePQLhHxtdt6y+/yS/kNZjL9zuLhFgg9hXeXwuDONAak1tRiT5TAarTo50U0ZHpqKpmOGG4cIrYOReY4MrmN+1+NeuMC74nBTV4PzR09IlofEj/FxGpaxMNp1BlFJKspH6J3uv+K4ygetmpNR8SpVcN6sQmC2Mgem46Drb5NS2EuESXMEFquCnnjZUwGKBH3u+meKS5Gf1LE1Eq21ZuqTi1HpHr2iHitqUePmfj08eN+olPEVCWa5df0jMAXLIRGjTQRD3V22eRGLXMGEYll3/CmliNSKYlHRHvnRm8q1sXYJBuuukQkisc9Y2UEku1NJIZisGnaDCISBYgQA5ftiPaWhkfEFMs0q2PVvU3wPNZWUxk9hphZ4zWXiLIwzRkph68LIp49ZzZmEBGjNSWi5YhUSHSL2K+1ov5H8Z5omqRVX7XBzMAlYkQ6NjLMtSiiZ89nFhHtoiyIaDsieb7GJaKEnaTJmgzyxMJqmt5xioHFkkNEaWa0GsNSCofzXxaR2h5QyZztiPb7B24RsaI1iaIuEQMpoDbxUsJJENH8YCk47NICvm+fwvySiMRGVSei7Yjk7oBTRAiJ0zIuikiFK9iOg8oz5H5WCQOWOC/rlAAEiWHJ/0siUrNe+6a2I9KBxumJSsTMEpGM+VAZg4I1xgFjOGPtYWd1hNnjC9uDiNR5sZ55RBRnQkTbEWt6J9glIuZO3xQRhANPhHwhNxaDK0pa1R7M6yvmv+SJWBzRRBS2IzqOXbpExE2UYgyKKGK/7Jv+BM4o9GUL9cPxsJJqSFS9EAyWmCq+F1HOI6I9dIvYckTvgSYqxcGHbiKJJQeIXvh+19VJ4uZBImPYW8UaEe5YLNM2Ue7qF9tq2H3NiX4w08WZ6PdETMzSbGFtmPqP1lEi9rt2dfGo1uvr83RWyTYWZbtItj/vnvfquSsazddlvxH4WmzOy1I5WaSakEXcfs8LVAERydkLmUvEQD51yTZm5WDpP+RJLvvsiDARkVhtDuXotNFvtIMYvjJRWB+fBXEidtvTNz/NJKJ53NjUsHCfe3Ubbfn3RESi7jHJhozUtY6x5OUIy+ABUFUkd/v0V53LE/0H38Pdu4PvtIskayIFBRFFY17fTHxdVnr9R8KSr3EMBzhQAhJ/Q8TZPLEz5RTS7Ne+04fdCePMlZeJajFxuUN2Oe/Q+PS+eY1KrW7GH+6IY3/wtFk+RFCVXS9HRy/JMRtui8zXUpF3Tcq1p8UfIMk6ifbnCwRq2eC2WQpR5d0f5jyvMmrn2zHiyzRO7o/daZdXxAMSIe/5I7/LVO0e+HtJJrff2DM08bb4E+ToAEC9vf/An/epPxFz3ZLuPx4zjyb+KyQi2C1eqyzL9pfFsbL34phvkXR/qttt2/6jfsAwDMMwDMMwDMMwDMMwDMMwDMMwDMMwDMMwDMMwDMMwDMMwDMMwDMMwDMMwDMMwDMMwDDMD/wFMoWWqXMNzSQAAAABJRU5ErkJggg==;" parent="1" vertex="1">
                    <mxGeometry x="440" y="673" width="157.85" height="76" as="geometry"/>
                </mxCell>
                <mxCell id="24" value="Cloud&#10;Run" style="sketch=0;html=1;verticalAlign=top;labelPosition=center;verticalLabelPosition=bottom;align=center;spacingTop=-6;fontSize=11;fontStyle=1;fontColor=#999999;shape=image;aspect=fixed;imageAspect=0;image=data:image/svg+xml,PHN2ZyB4bWxucz0iaHR0cDovL3d3dy53My5vcmcvMjAwMC9zdmciIHhtbG5zOnY9Imh0dHBzOi8vdmVjdGEuaW8vbmFubyIgd2lkdGg9IjM2NS40NjQ5OTY3NzA0MjQ5MyIgaGVpZ2h0PSIzNzkuMjIyOTk0NDYzNTc3OTUiIHZpZXdCb3g9IjAgMCA5Ni42OTU5OTkxNDU1MDc4MSAxMDAuMzM1OTk4NTM1MTU2MjUiPiYjeGE7PHN0eWxlIHR5cGU9InRleHQvY3NzIj4mI3hhOwkuc3Qwe2ZpbGw6IzQyODVmNDt9JiN4YTsJLnN0MXtmaWxsOiNhZWNiZmE7fSYjeGE7PC9zdHlsZT4mI3hhOwk8cGF0aCBjbGFzcz0ic3QwIiBkPSJNMjkuNzk0IDEwMC4zMzZMNDYuOTIgNTAuMTY4aDQ5Ljc3NnpNMCA5OS42NzFsMTIuOTc2LTQ5LjUwMkgyOS4yMkwxNi44OTcgOTIuMDU0eiIvPiYjeGE7CTxwYXRoIGNsYXNzPSJzdDEiIGQ9Ik0yOS43OTQgMEw0Ni45MiA1MC4xNjhoNDkuNzc2ek0wIC42NjZsMTIuOTc2IDQ5LjUwMkgyOS4yMkwxNi44OTcgOC4yODN6Ii8+JiN4YTs8L3N2Zz4=;" parent="1" vertex="1">
                    <mxGeometry x="483.92" y="750" width="61" height="61" as="geometry"/>
                </mxCell>
                <mxCell id="30" value="Datastore" style="sketch=0;html=1;verticalAlign=top;labelPosition=center;verticalLabelPosition=bottom;align=center;spacingTop=-6;fontSize=11;fontStyle=1;fontColor=#999999;shape=image;aspect=fixed;imageAspect=0;image=data:image/svg+xml,PHN2ZyB4bWxucz0iaHR0cDovL3d3dy53My5vcmcvMjAwMC9zdmciIHhtbG5zOnY9Imh0dHBzOi8vdmVjdGEuaW8vbmFubyIgd2lkdGg9IjMwIiBoZWlnaHQ9IjIxIiB2aWV3Qm94PSIwIDAgMzAgMjEiPiYjeGE7CTxzdHlsZSB0eXBlPSJ0ZXh0L2NzcyI+JiN4YTsJLnN0MHtmaWxsOiM0Mjg1ZjQ7fSYjeGE7CS5zdDF7ZmlsbDojNjY5ZGY2O30mI3hhOwkuc3Qye2ZpbGw6I2FlY2JmYTt9JiN4YTsJLnN0M3tmaWxsOiNmZmY7fSYjeGE7CTwvc3R5bGU+JiN4YTsJPHBhdGggZD0iTTAgMGwxLjUgMS41aDZMOSAweiIgY2xhc3M9InN0MiIvPiYjeGE7CTxwYXRoIGQ9Ik05IDlWMEw3LjUgMS41djZ6IiBjbGFzcz0ic3QxIi8+JiN4YTsJPHBhdGggZD0iTTAgOWwxLjUtMS41di02TDAgMHoiIGNsYXNzPSJzdDIiLz4mI3hhOwk8cGF0aCBkPSJNOSA5TDcuNSA3LjVoLTZMMCA5eiIgY2xhc3M9InN0MCIvPiYjeGE7CTxwYXRoIGQ9Ik0xLjUgMS41aDZ2NmgtNnoiIGNsYXNzPSJzdDIiLz4mI3hhOwk8cGF0aCBkPSJNMTAuNSAwTDEyIDEuNWg2TDE5LjUgMHoiIGNsYXNzPSJzdDAiLz4mI3hhOwk8cGF0aCBkPSJNMTkuNSA5VjBMMTggMS41djZ6IiBjbGFzcz0ic3QxIi8+JiN4YTsJPHBhdGggZD0iTTEwLjUgOUwxMiA3LjV2LTZMMTAuNSAweiIgY2xhc3M9InN0MCIvPiYjeGE7CTxwYXRoIGQ9Ik0xOS41IDlMMTggNy41aC02TDEwLjUgOXoiIGNsYXNzPSJzdDEiLz4mI3hhOwk8cGF0aCBkPSJNMTIgMS41aDZ2NmgtNnoiIGNsYXNzPSJzdDMiLz4mI3hhOwk8cGF0aCBkPSJNMjEgMGwxLjUgMS41aDZMMzAgMHoiIGNsYXNzPSJzdDAiLz4mI3hhOwk8cGF0aCBkPSJNMzAgOVYwbC0xLjUgMS41djZ6IiBjbGFzcz0ic3QxIi8+JiN4YTsJPHBhdGggZD0iTTIxIDlsMS41LTEuNXYtNkwyMSAweiIgY2xhc3M9InN0MCIvPiYjeGE7CTxwYXRoIGQ9Ik0zMCA5bC0xLjUtMS41aC02TDIxIDl6IiBjbGFzcz0ic3QxIi8+JiN4YTsJPHBhdGggZD0iTTIyLjUgMS41aDZ2NmgtNnoiIGNsYXNzPSJzdDMiLz4mI3hhOwk8cGF0aCBkPSJNMCAxMmwxLjUgMS41aDZMOSAxMnoiIGNsYXNzPSJzdDAiLz4mI3hhOwk8cGF0aCBkPSJNOSAyMXYtOWwtMS41IDEuNXY2eiIgY2xhc3M9InN0MSIvPiYjeGE7CTxwYXRoIGQ9Ik0wIDIxbDEuNS0xLjV2LTZMMCAxMnoiIGNsYXNzPSJzdDAiLz4mI3hhOwk8cGF0aCBkPSJNOSAyMWwtMS41LTEuNWgtNkwwIDIxeiIgY2xhc3M9InN0MSIvPiYjeGE7CTxwYXRoIGQ9Ik0xLjUgMTMuNWg2djZoLTZ6IiBjbGFzcz0ic3QzIi8+JiN4YTsJPHBhdGggZD0iTTEwLjUgMTJsMS41IDEuNWg2bDEuNS0xLjV6IiBjbGFzcz0ic3QyIi8+JiN4YTsJPHBhdGggZD0iTTE5LjUgMjF2LTlMMTggMTMuNXY2eiIgY2xhc3M9InN0MSIvPiYjeGE7CTxwYXRoIGQ9Ik0xMC41IDIxbDEuNS0xLjV2LTZMMTAuNSAxMnoiIGNsYXNzPSJzdDIiLz4mI3hhOwk8cGF0aCBkPSJNMTkuNSAyMUwxOCAxOS41aC02TDEwLjUgMjF6IiBjbGFzcz0ic3QwIi8+JiN4YTsJPHBhdGggZD0iTTEyIDEzLjVoNnY2aC02em05LTEuNWwxLjUgMS41aDZMMzAgMTJ6IiBjbGFzcz0ic3QyIi8+JiN4YTsJPHBhdGggZD0iTTMwIDIxdi05bC0xLjUgMS41djZ6IiBjbGFzcz0ic3QxIi8+JiN4YTsJPHBhdGggZD0iTTIxIDIxbDEuNS0xLjV2LTZMMjEgMTJ6IiBjbGFzcz0ic3QyIi8+JiN4YTsJPHBhdGggZD0iTTMwIDIxbC0xLjUtMS41aC02TDIxIDIxeiIgY2xhc3M9InN0MCIvPiYjeGE7CTxwYXRoIGQ9Ik0yMi41IDEzLjVoNnY2aC02eiIgY2xhc3M9InN0MiIvPiYjeGE7PC9zdmc+;" parent="1" vertex="1">
                    <mxGeometry x="650" y="656" width="159.31" height="110" as="geometry"/>
                </mxCell>
            </root>
        </mxGraphModel>
    </diagram>
</mxfile>